<?xml version="1.0" encoding="UTF-8" standalone="no"?>
<!-- Generator: Adobe Illustrator 16.0.0, SVG Export Plug-In . SVG Version: 6.00 Build 0)  -->

<svg
   version="1.1"
   id="Layer_1"
   x="0px"
   y="0px"
   width="178.77"
   height="109.779"
   viewBox="-167.5 555.61 178.77 109.779"
   enable-background="new -167.5 555.61 335 109.779"
   xml:space="preserve"
   fill="#ffffff"
   sodipodi:docname="ISTA_Logo.svg"
   inkscape:version="1.3 (0e150ed, 2023-07-21)"
   xmlns:inkscape="http://www.inkscape.org/namespaces/inkscape"
   xmlns:sodipodi="http://sodipodi.sourceforge.net/DTD/sodipodi-0.dtd"
   xmlns="http://www.w3.org/2000/svg"
   xmlns:svg="http://www.w3.org/2000/svg"><defs
   id="defs35" /><sodipodi:namedview
   id="namedview35"
   pagecolor="#505050"
   bordercolor="#ffffff"
   borderopacity="1"
   inkscape:showpageshadow="0"
   inkscape:pageopacity="0"
   inkscape:pagecheckerboard="1"
   inkscape:deskcolor="#505050"
   inkscape:zoom="1.3791045"
   inkscape:cx="67.072511"
   inkscape:cy="31.904762"
   inkscape:window-width="1312"
   inkscape:window-height="449"
   inkscape:window-x="0"
   inkscape:window-y="38"
   inkscape:window-maximized="0"
   inkscape:current-layer="Layer_1" />&#10;&#10;&#10;&#10;&#10;&#10;&#10;&#10;&#10;&#10;&#10;&#10;&#10;&#10;&#10;&#10;&#10;&#10;&#10;&#10;&#10;&#10;&#10;&#10;&#10;&#10;&#10;&#10;&#10;&#10;&#10;&#10;<polygon
   points="3.742,641.655 11.27,641.655 -22.282,594.896 -55.833,641.655 -48.658,641.655 -22.432,604.672 "
   id="polygon31" />&#10;<polygon
   points="-110.933,602.443 -83.212,602.443 -83.212,664.94 -77.045,664.94 -77.045,602.443 -49.325,602.443 -49.325,596.436 -110.933,596.436 "
   id="polygon32" />&#10;<polygon
   points="-12.304,640.948 -4.999,640.948 -22.282,616.862 -39.564,640.948 -32.575,640.948 -22.432,626.644 "
   id="polygon33" />&#10;<polygon
   points="-162.082,605.639 -162.501,644.897 -152.11,597.253 -157.445,597.32 -158.003,555.61 -167.5,605.551 "
   id="polygon34" />&#10;<polygon
   points="-104.889,596.436 -110.917,591.385 -110.933,602.443 -83.212,602.443 -83.212,664.94 -77.045,664.94 -77.045,602.443 -49.325,602.443 -49.34,591.385 -55.373,596.436 "
   id="polygon35" />&#10;<path
   d="m -107.443,569.326 c 0.398,-0.662 0.931,-0.373 2.068,-1.604 l -0.129,-0.051 c -0.492,0.33 -1.011,0.619 -1.551,0.863 -0.43,0.189 -0.84,0.42 -1.225,0.688 -0.229,0.003 -0.456,0.032 -0.677,0.088 0.002,-0.014 0.002,-0.027 0,-0.041 -0.677,-0.982 -2.647,-1.127 -3.759,-1.127 -1.422,0.002 -2.837,0.206 -4.203,0.604 -1.398,0.407 -2.658,1.188 -3.645,2.259 v 0 c -4.953,2.803 -11.73,6.644 -14.573,14.527 -3.102,8.613 -0.631,19.924 7.568,34.591 5.8,10.375 7.786,18.88 5.899,25.279 -1.887,6.4 -7.393,9.379 -10.454,11.002 -1.354,-0.265 -2.752,-0.18 -4.063,0.248 -3.2,0.992 -5.542,4.301 -5.816,6.24 -0.008,0.141 0.009,0.283 0.052,0.418 -0.254,0.015 -0.509,-0.012 -0.755,-0.077 -0.737,-0.144 -1.5,-0.087 -2.207,0.165 l 0.046,0.119 c 0.673,-0.052 1.35,0.021 1.996,0.217 -0.398,0.662 -0.931,0.373 -2.068,1.604 l 0.129,0.051 c 0.492,-0.33 1.011,-0.619 1.551,-0.863 0.431,-0.188 0.843,-0.418 1.23,-0.688 0.098,0.006 0.197,0.006 0.295,0 0.02,0.037 0.044,0.072 0.072,0.104 0.76,0.874 2.626,1.004 3.67,1.004 1.418,-10e-4 2.828,-0.205 4.188,-0.605 1.167,-0.354 2.245,-0.955 3.159,-1.763 l 0.201,-0.119 c 0.269,-0.16 0.61,-0.341 1.003,-0.548 l 0.083,-0.047 c 3.541,-1.871 10.903,-5.77 13.545,-14.713 2.373,-8.033 0.207,-18.125 -6.426,-29.984 -16.119,-28.816 -4.585,-35.558 3.97,-40.417 0.38,0.061 0.764,0.09 1.148,0.088 0.877,-0.004 1.748,-0.141 2.585,-0.404 3.014,-0.93 5.604,-4.135 5.821,-6.26 -0.005,-0.115 -0.024,-0.23 -0.057,-0.342 0.392,-0.098 0.802,-0.098 1.194,0 0.735,0.145 1.496,0.087 2.202,-0.165 l -0.042,-0.118 c -0.682,0.055 -1.37,-0.022 -2.025,-0.223 z"
   id="path35" />&#10;</svg>
