<?xml version="1.0" encoding="UTF-8" standalone="no"?>
<svg
   viewBox="0 0 175.216 175.552"
   version="1.1"
   id="svg6"
   sodipodi:docname="whatsapp.svg"
   inkscape:version="1.3 (0e150ed, 2023-07-21)"
   xmlns:inkscape="http://www.inkscape.org/namespaces/inkscape"
   xmlns:sodipodi="http://sodipodi.sourceforge.net/DTD/sodipodi-0.dtd"
   xmlns="http://www.w3.org/2000/svg"
   xmlns:svg="http://www.w3.org/2000/svg">
  <sodipodi:namedview
     id="namedview6"
     pagecolor="#505050"
     bordercolor="#ffffff"
     borderopacity="1"
     inkscape:showpageshadow="0"
     inkscape:pageopacity="0"
     inkscape:pagecheckerboard="1"
     inkscape:deskcolor="#505050"
     inkscape:zoom="4.822139"
     inkscape:cx="83.365494"
     inkscape:cy="82.535987"
     inkscape:window-width="1800"
     inkscape:window-height="1097"
     inkscape:window-x="0"
     inkscape:window-y="44"
     inkscape:window-maximized="1"
     inkscape:current-layer="svg6" />
  <defs
     id="defs2">
    <linearGradient
       id="b"
       x1="85.915"
       x2="86.535"
       y1="32.567"
       y2="137.092"
       gradientUnits="userSpaceOnUse"
       gradientTransform="matrix(1.1857106,0,0,1.1857106,-15.373933,-15.404531)">
      <stop
         offset="0"
         stop-color="#57d163"
         id="stop1" />
      <stop
         offset="1"
         stop-color="#23b33a"
         id="stop2" />
    </linearGradient>
    <filter
       id="a"
       width="1.1146948"
       height="1.1141825"
       x="-0.057347414"
       y="-0.05709127"
       color-interpolation-filters="sRGB">
      <feGaussianBlur
         stdDeviation="3.531"
         id="feGaussianBlur2" />
    </filter>
  </defs>
  <path
     fill="#ffffff"
     d="M -5.310016e-6,175.77707 12.377627,130.58489 A 87.05487,87.05487 0 0 1 0.73276382,86.983945 C 0.7529209,38.89627 39.886112,-0.22506464 87.974976,-0.22506464 111.31095,-0.21320753 133.21458,8.8681497 149.68765,25.353084 166.16073,41.838018 175.2243,63.749949 175.216,87.053902 175.19466,135.13802 136.05554,174.26647 87.97379,174.26647 h -0.03794 c -14.599654,-0.006 -28.945566,-3.66859 -41.688397,-10.61685 z"
     id="path3"
     style="stroke-width:1.18571" />
  <path
     fill="url(#b)"
     d="m 88.001062,14.507389 c -39.997575,0 -72.525173,32.515741 -72.539402,72.482485 a 72.30463,72.30463 0 0 0 11.085209,38.577096 l 1.725208,2.74255 -7.326505,26.74725 27.444457,-7.19607 2.650063,1.56988 c 11.130265,6.60559 23.892068,10.09869 36.906427,10.10581 h 0.02727 c 39.966751,0 72.494351,-32.5193 72.509761,-72.488416 A 72.031917,72.031917 0 0 0 139.26526,35.764808 72.031917,72.031917 0 0 0 88.001062,14.507389 Z"
     id="path5"
     style="fill:url(#b);stroke-width:1.18571" />
  <path
     fill="#ffffff"
     fill-rule="evenodd"
     d="m 66.169759,50.524533 c -1.63391,-3.62946 -3.35319,-3.702974 -4.905285,-3.765816 l -4.178444,-0.05099 c -1.453681,0 -3.815617,0.545427 -5.812353,2.727134 -1.996737,2.181708 -7.630048,7.454563 -7.630048,18.179315 0,10.724752 7.811461,21.08786 8.899944,22.543912 1.088482,1.456053 15.079867,24.165972 37.23724,32.903472 18.412897,7.26129 22.159747,5.8171 26.157967,5.45427 3.99821,-0.36283 12.89697,-5.27286 14.71229,-10.36311 1.81532,-5.09026 1.81651,-9.4513 1.27227,-10.36311 -0.54424,-0.91181 -1.99792,-1.45368 -4.17963,-2.54454 -2.18171,-1.09085 -12.89697,-6.363709 -14.8949,-7.091735 -1.99792,-0.728027 -3.45041,-1.089668 -4.90528,1.092039 -1.45487,2.181716 -5.62738,7.089366 -6.89965,8.544236 -1.27227,1.45487 -2.542166,1.63746 -4.723873,0.5478 C 94.138299,107.24774 87.118893,104.94509 78.790462,97.518984 72.310554,91.741016 67.936467,84.605412 66.663014,82.42489 c -1.273453,-2.180521 -0.135171,-3.361489 0.958054,-4.4476 0.978212,-0.977025 2.179336,-2.545721 3.271376,-3.817988 1.092039,-1.272267 1.451309,-2.181707 2.176964,-3.634203 0.725655,-1.452495 0.364013,-2.72832 -0.181413,-3.817988 C 72.342568,65.617443 68.10721,54.836963 66.169759,50.525719"
     id="path6"
     style="stroke-width:1.18571" />
</svg>
