<?xml version="1.0" encoding="utf-8"?>
<!-- Generator: Adobe Illustrator 16.0.0, SVG Export Plug-In . SVG Version: 6.00 Build 0)  -->
<!DOCTYPE svg PUBLIC "-//W3C//DTD SVG 1.1//EN" "http://www.w3.org/Graphics/SVG/1.1/DTD/svg11.dtd">
<svg version="1.1"
	 id="svg4543" xmlns:dc="http://purl.org/dc/elements/1.1/" xmlns:cc="http://creativecommons.org/ns#" xmlns:rdf="http://www.w3.org/1999/02/22-rdf-syntax-ns#" xmlns:svg="http://www.w3.org/2000/svg" xmlns:sodipodi="http://sodipodi.sourceforge.net/DTD/sodipodi-0.dtd" xmlns:inkscape="http://www.inkscape.org/namespaces/inkscape" sodipodi:docname="Disney Store 2.svg" inkscape:version="0.91 r13725"
	 xmlns="http://www.w3.org/2000/svg" xmlns:xlink="http://www.w3.org/1999/xlink" x="0px" y="0px" width="1000px"
	 height="528.958px" viewBox="0 0 1000 528.958" enable-background="new 0 0 1000 528.958" xml:space="preserve">
<sodipodi:namedview  inkscape:cy="331.82255" inkscape:cx="216.17477" inkscape:zoom="0.53" showgrid="false" id="namedview31" guidetolerance="10" gridtolerance="10" objecttolerance="10" borderopacity="1" bordercolor="#666666" pagecolor="#ffffff" inkscape:current-layer="svg4543" inkscape:window-maximized="1" inkscape:window-y="-8" inkscape:pageopacity="0" inkscape:window-x="-8" inkscape:window-height="705" inkscape:window-width="1366" inkscape:pageshadow="2">
	</sodipodi:namedview>
<g>
	<path id="path1530" inkscape:connector-curvature="0" fill="#002F65" d="M957.642,269.692
		c-4.851,4.397-20.633,12.871-36.867,13.971c17.247-28.826,36.134-50.817,47.065-62.287c12.806-13.518,14.1-0.841,14.1-0.841
		C984.031,245.134,965.554,263.137,957.642,269.692 M986.769,191.127c-28.48-21.15-76.947,41.826-98.938,72.765
		c-2.651-16.278,8.883-36.437,8.883-36.437s18.521-29.839,21.107-35.983c2.63-6.145,4.42-18.908,1.337-20.223
		c-2.631-1.337-7.438,2.63-7.438,2.63c-40.446,34.172-47.087,73.239-47.087,73.239c-4.441,21.107-0.345,35.941,5.605,46.57
		c-22.982,46.225-35.725,86.455-33.116,110.602c1.747,18.455,14.855,32.061,22.725,35.143c7.891,3.559,9.724-6.102,9.724-6.102
		c7.632-46.807,20.158-85.42,33.525-115.367c0.432,0.108,0.884,0.217,1.401,0.346c40.835,10.327,72.873-28.395,84.3-47.26
		C1003.392,246.902,1004.75,204.774,986.769,191.127"/>
	<path id="path1534" inkscape:connector-curvature="0" fill="#002F65" d="M416.569,85.649c8.387-12.268,20.244-17.981,34.259-18.801
		c-18.197,12.095-31.349,27.489-38.248,37.666C409.843,100.698,410.403,94.833,416.569,85.649 M435.865,117.752
		c14.165-19.706,43.033-42.969,61.511-45.6c10.543-1.25,13.733,2.976,14.294,7.546c0.475,4.635-1.596,9.637-1.596,9.637
		C492.892,121.805,456.477,122.279,435.865,117.752 M469.132,141.92c31.65-9.594,62.934-39.368,63.839-63.947
		c1.337-24.621-26.303-25.527-26.303-25.527h-0.862c-4.98-15.178-32.943-14.1-32.943-14.1
		c-58.428,2.975-79.146,42.883-81.777,53.404c-2.673,9.228-1.53,22.595,9.185,33.375c-3.579,8.775-0.884,12.763,0,14.941
		c0.884,3.062,5.714,12.289,11.341,11.879c3.988-0.431,6.921-3.169,12.354-11.815C435.455,145.176,448.931,148.087,469.132,141.92"
		/>
	<path id="path1538" inkscape:connector-curvature="0" fill="#002F65" d="M846.539,290.124c2.178-7.481-4.334-15.781-10.479-17.55
		c-5.713-1.38-50.084,5.584-55.388,6.878c-5.67,1.314-3.062-3.924-3.062-3.924s4.355-14.122,7.18-21.927
		c15.006-0.431,32.448-0.949,48.683-2.113c5.691-0.41,6.102-4.851,6.102-4.851s0.841-6.576,0.841-12.72
		c-0.389-6.576-5.605-6.167-5.605-6.167c-8.991-1.229-24.126-1.531-39.023-1.315c3.018-7.158,5.54-13.54,6.554-17.162
		c0,0,44.737-0.798,61.877-4.355c8.818-1.682,3.967-10.479,3.967-10.479c-10.003-21.538-22.314-20.654-22.314-20.654
		c-35.121-2.264-86.498,5.563-92.212,8.149c-5.282,2.178-4.872,6.145,1.682,14.984c3.407,4.463,8.085,6.554,11.858,7.697
		c1.703,0.518,4.14,1.1,7.18,1.682c-2.522,4.398-6.662,12.721-10.759,21.301h-0.388c-8.84,0.582-11.88,3.105-11.88,3.105
		c-3.751,3.729-1.596,13.086,0.107,18.132c0.389,1.143,0.863,2.005,1.467,2.716c-0.108,0.216-0.216,0.475-0.302,0.647
		c-2.092,5.347-16.343,33.763-5.8,52.283c11.405,19.317,25.462,18.908,25.462,18.908
		C799.085,326.064,843.887,299.33,846.539,290.124"/>
	<path id="path1542" inkscape:connector-curvature="0" fill="#002F65" d="M70.392,220.718c0,0-8.365-9.206,4.355-14.919
		c11.341-4.765,36.048-10.5,78.306-12.526c-1.983,25.937-3.967,55.021-4.204,80.742C121.963,262.587,93.203,246.719,70.392,220.718
		 M267.751,47.635c0,0-132.421-73.11-243.994-38.183c0,0-7.115-0.453-13.712,8.753C3.47,26.958-2.222,33.082,0.861,40.153
		c3.062,7.029,20.159,10.564,35.531,6.209c0,0,7.028-4.398-1.725-7.46c-8.387-3.083-13.151-3.967-13.151-3.967
		s-4.42-0.927,0.367-3.083c4.398-2.177,55.409-17.011,144.063,9.012c88.676,25.656,207.493,101.375,201.671,176.447
		c-5.8,75.072-123.495,74.877-123.495,74.877s-24.19,0.474-56.207-6.684c0.043-15.222,1.423-60.087,2.501-92.212
		c45.621,1.229,90.725,10.802,94.217,22.121c0,0,2.177,5.239-8.344,10.068c-9.659,3.946-17.162,7.05-9.335,10.974
		c0,0,11.491,5.735,18.973,5.282c7.028-0.453,25.894-8.344,28.114-28.502c2.673-20.633-20.547-39.541-56.121-47.043
		c-27.208-5.757-41.719-7.762-66.297-7.611c0.496-22.401-1.639-50.493-6.425-57.091c-5.713-8.775-12.311-20.633-18.046-7.956
		c-4.808,10.974-9.271,35.143-11.491,67.203c-37.816,4.937-79.923,19.619-93.117,35.013c-14.101,17.011-0.992,31.564,0.323,32.879
		c0.862,1.747,27.187,42.235,85.917,71.299c0.841,10.499,2.608,22.379,6.576,28.954c8.731,14.08,25.894,4.873,28.071,2.695
		c1.768-1.768,3.104-6.123,3.989-16.666c26.238,7.805,74.576,16.365,126.427,2.372c78.65-21.366,91.026-69.208,94.195-97.709
		C411.104,190.599,391.915,115.031,267.751,47.635"/>
	<path id="path1546" inkscape:connector-curvature="0" fill="#002F65" d="M453.267,190.219c-0.389-10.112-3.859-14.941-6.964-19.339
		c-2.609-4.355-7.007-10.068-14.467-3.967c-7.051,6.123-8.904,45.664-10.672,77.723c-1.876,31.563-0.949,51.766,2.953,57.005
		c3.988,5.777,18.412,8.451,25.419,3.6c6.598-4.807,4.959-52.217,4.959-52.217S453.74,200.331,453.267,190.219"/>
	<path id="path1550" inkscape:connector-curvature="0" fill="#002F65" d="M614.444,176.007
		c-10.047-11.879-66.729-11.513-66.729-11.513c-20.633,1.272-68.496,8.193-75.977,29.731c-7.072,20.568-1.401,28.071-1.401,28.071
		c5.691,10.996,46.526,11.492,57.479,12.397c11.47,0.906,40.921,5.304,50.925,11.535c10.111,6.597,3.083,14.036,3.083,14.036
		c-17.571,18.412-74.662,20.028-89.172,10.78c-5.692-3.472-7.007-7.87-0.862-13.993c6.188-6.598,25.052,3.967,22.854,3.104
		c-2.221-1.337,9.185,6.619,24.987,7.525c16.257,0.84,27.684-4.808,28.567-10.5c0.927-5.304-13.562-11.039-13.562-11.039
		c-47.82-14.984-67.181-4.053-67.181-4.053c-26.82,15.739-7.978,38.161-7.978,38.161c41.201,46.656,108.016,19.533,115.863,12.958
		c7.503-6.123,11.061-13.173,11.944-32.038c0.905-18.412-6.964-26.799-6.964-26.799c-13.173-17.55-51.334-18.499-62.782-19.447
		c-10.521-0.453-32.47-4.398-37.73-5.778c-5.282-1.293-1.768-5.239-1.768-5.239c4.872-6.597,102.366-10.349,102.366-10.349
		c10.091-0.819,11.405-7.05,13.626-10.974C615.759,178.637,614.444,176.007,614.444,176.007"/>
	<path id="path1554" inkscape:connector-curvature="0" fill="#002F65" d="M698.314,149.35c0,0-6.102-3.083-7.848,3.083
		c-1.79,6.145,0.388,12.72,0.388,12.72c13.992,53.167,16.515,84.364,16.515,84.364s0.475,9.163-1.314,9.637
		c-1.294,0.862-2.609-0.474-2.609-0.474c-1.768,0-17.959-28.998-17.959-28.998l-3.062-5.713
		c-16.623-31.154-28.869-41.309-28.869-41.309c-2.651-2.63-9.228-9.68-18.024-0.453c-8.817,9.185-16.32,39.455-19.921,68
		c-3.062,28.545-1.812,44.823,2.091,51.809c4.42,7.028,13.174,9.701,20.677,4.01c7.912-5.734,7.546-43.464,9.356-62.761
		c1.769-19.339,3.536-15.825,3.536-15.825c1.703-0.432,10.09,17.571,10.09,17.571s21.775,48.38,36.329,55.862
		c14.466,7.459,26.777-3.492,31.606-14.057c4.894-10.5,13.755-45.643,3.212-85.098C722.03,162.092,698.314,149.35,698.314,149.35"/>
	<g id="g1556" transform="matrix(21.559934,0,0,-21.559934,450.88391,373.39233)">
		<path id="path1558" inkscape:connector-curvature="0" fill="#002F65" d="M0,0l-2.821,0.004c-0.194,0-0.347-0.157-0.347-0.344
			c0-0.188,0.15-0.347,0.345-0.347h0.771c0.143,0,0.262-0.12,0.261-0.264l-0.006-2.954c0-0.206,0.173-0.37,0.377-0.37
			c0.206,0,0.376,0.161,0.379,0.369l0.003,2.952c0,0.146,0.119,0.264,0.263,0.264l0.773-0.001C0.188-0.692,0.34-0.534,0.34-0.346
			C0.342-0.16,0.188,0,0,0 M8.977-1.412c0-0.429-0.344-0.71-0.876-0.71L7.005-2.119l0.004,1.163c0,0.146,0.119,0.263,0.264,0.263
			l0.823-0.001c0.553-0.001,0.881-0.25,0.881-0.707V-1.412z M8.159-0.014L6.641-0.012c-0.212,0-0.376-0.163-0.376-0.375L6.26-3.919
			c-0.003-0.205,0.16-0.37,0.373-0.37c0.208,0,0.371,0.163,0.371,0.369l0.001,0.877c0,0.146,0.119,0.264,0.265,0.264L7.945-2.78
			v-0.001h0.002l1.03-1.318c0.085-0.115,0.194-0.195,0.365-0.196c0.179,0,0.357,0.141,0.357,0.346c0,0.116-0.048,0.194-0.121,0.286
			l-0.81,1.026C9.339-2.461,9.733-2.05,9.733-1.37v0.011c0.002,0.37-0.126,0.686-0.35,0.918C9.11-0.175,8.692-0.015,8.159-0.014
			 M13.833-3.604l-2.13,0.003l0.002,0.877c0.001,0.144,0.12,0.265,0.266,0.264l1.56-0.002c0.181-0.001,0.334,0.145,0.334,0.327
			c0.004,0.186-0.151,0.34-0.333,0.34l-1.826,0.002l0.003,0.843c0,0.145,0.118,0.263,0.263,0.263l1.836-0.004
			c0.181,0,0.333,0.144,0.333,0.332c0.001,0.184-0.152,0.336-0.331,0.336l-2.471,0.004c-0.212,0-0.376-0.164-0.377-0.376
			l-0.007-3.496c0-0.211,0.165-0.375,0.376-0.376l2.502-0.004c0.181,0,0.333,0.145,0.333,0.333
			C14.166-3.756,14.016-3.604,13.833-3.604 M4.462-2.144c-0.004-0.826-0.593-1.49-1.436-1.49C2.183-3.633,1.581-2.952,1.584-2.126
			v0.011C1.586-1.29,2.175-0.617,3.018-0.617c0.844-0.002,1.444-0.689,1.444-1.515V-2.144L4.462-2.144z M3.033,0.068
			C1.726,0.07,0.804-0.928,0.801-2.126v-0.013C0.799-3.332,1.708-4.323,3.012-4.326C4.317-4.327,5.24-3.33,5.244-2.134v0.012
			C5.245-0.926,4.336,0.065,3.033,0.068 M-5.177-1.776c-0.818,0.195-1.011,0.342-1.011,0.671v0.012
			C-6.187-0.815-5.931-0.59-5.495-0.59c0.334-0.001,0.649-0.112,0.975-0.325C-4.458-0.95-4.398-0.97-4.324-0.971
			c0.193,0,0.351,0.153,0.353,0.346c0,0.146-0.077,0.249-0.163,0.297C-4.518-0.071-4.946,0.068-5.482,0.07
			c-0.842,0.002-1.451-0.503-1.451-1.23v-0.011c-0.005-0.784,0.507-1.053,1.412-1.273c0.788-0.182,0.957-0.346,0.957-0.648v-0.013
			c0-0.317-0.293-0.532-0.753-0.532c-0.462,0.001-0.838,0.158-1.191,0.439c-0.048,0.036-0.116,0.065-0.219,0.066
			c-0.192,0-0.351-0.152-0.351-0.346c0-0.12,0.06-0.223,0.146-0.284c0.472-0.353,1.018-0.535,1.595-0.537
			c0.891-0.002,1.518,0.47,1.52,1.266v0.011C-3.817-2.318-4.276-1.997-5.177-1.776"/>
	</g>
	<path id="path1570" inkscape:connector-curvature="0" fill="#002F65" d="M242.815,402.661c5.153-0.432,27.898-2.416,27.898-2.416
		c0.518,0,0.884-0.172,1.165-0.518c0.366-0.301,0.625-0.818,0.711-1.422c0-0.906-0.819-1.768-1.79-1.832
		c0,0-22.789-2.804-27.898-3.407c2.307-3.32,7.158-10.543,7.158-10.543c0.539-0.69,0.388-1.682-0.237-2.351
		c-0.646-0.689-1.66-0.797-2.372-0.344c0,0-7.287,4.613-10.737,6.813c-0.302-5.109-2.328-27.941-2.328-27.941
		c-0.108-1.035-0.906-1.769-1.94-1.746c-0.561-0.044-1.035,0.172-1.272,0.431c-0.432,0.431-0.625,0.755-0.668,1.251
		c0,0-2.781,22.875-3.277,27.941c-3.342-2.178-10.004-6.447-10.004-6.447c-0.646-0.539-1.66-0.431-2.328,0.151l-0.065,0.043
		c-0.668,0.604-0.733,1.617-0.28,2.372c0,0,4.161,6.619,6.252,10.004c-5.131,0.452-28.092,2.436-28.092,2.436
		c-0.367,0.021-0.841,0.281-1.1,0.604c-0.388,0.324-0.604,0.777-0.711,1.316c0.043,1.033,0.797,1.896,1.811,1.961
		c0,0,22.724,2.717,27.877,3.342c-2.199,3.213-6.554,9.486-6.554,9.486c-0.475,0.732-0.431,1.725,0.129,2.35
		c0.668,0.668,1.746,0.82,2.458,0.41c0,0,6.834-4.01,10.069-5.973c0.539,5.023,2.565,28.115,2.565,28.115
		c0.064,0.947,0.884,1.746,1.854,1.768c0.582-0.021,0.949-0.193,1.315-0.561c0.323-0.324,0.604-0.625,0.625-1.186
		c0,0,2.76-22.982,3.363-27.941c3.299,2.068,10.241,6.467,10.241,6.467c0.668,0.561,1.703,0.432,2.307-0.236h0.021
		c0.647-0.625,0.841-1.639,0.345-2.414C249.327,412.643,244.972,406.045,242.815,402.661 M259.654,353.116
		c2.07,0.043,3.794-1.682,3.794-3.73c0-2.07-1.725-3.752-3.751-3.752c-2.091,0-3.729,1.682-3.729,3.752
		C255.924,351.434,257.605,353.116,259.654,353.116 M198.575,380.475c2.026,0,3.708-1.703,3.708-3.752
		c0.086-2.092-1.682-3.752-3.708-3.752c-2.048,0-3.73,1.66-3.773,3.73C194.802,378.772,196.526,380.475,198.575,380.475
		 M160.435,398.088c2.07,0,3.794-1.66,3.794-3.75c0-2.049-1.682-3.709-3.794-3.709c-2.048-0.021-3.665,1.66-3.665,3.709
		C156.77,396.407,158.387,398.088,160.435,398.088 M158.624,435.022c2.091,0.021,3.751-1.682,3.751-3.73
		c0-2.07-1.639-3.73-3.708-3.73c-2.091,0-3.751,1.66-3.751,3.73C154.916,433.34,156.576,435.022,158.624,435.022 M149.698,465.594
		c-2.005,0-3.751,1.682-3.751,3.707c0,2.113,1.746,3.816,3.751,3.816c2.091,0,3.773-1.703,3.773-3.795
		C153.471,467.297,151.79,465.594,149.698,465.594 M215.046,521.413c-2.005,0-3.687,1.703-3.687,3.75
		c0,2.092,1.682,3.795,3.687,3.795c2.113,0,3.773-1.682,3.773-3.773C218.819,523.116,217.159,521.434,215.046,521.413
		 M186.954,447.051c-2.113,0-3.773,1.682-3.773,3.773c0,2.027,1.66,3.752,3.708,3.752c2.134,0,3.773-1.725,3.773-3.752
		C190.662,448.754,189.023,447.051,186.954,447.051 M186.846,473.829c-2.026,0-3.73,1.66-3.73,3.752s1.704,3.752,3.73,3.752
		c2.07,0,3.751-1.66,3.751-3.752C190.662,475.51,188.937,473.829,186.846,473.829 M206.444,420.555
		c-3.622,0-6.576,2.953-6.576,6.619c-0.021,3.643,2.954,6.574,6.533,6.596c3.665,0,6.64-2.91,6.64-6.596
		C213.041,423.53,210.066,420.577,206.444,420.555 M273.797,368.487c-3.687,0-6.576,2.911-6.576,6.555
		c0,3.666,2.889,6.641,6.576,6.641c3.601,0,6.576-2.953,6.641-6.619C280.438,371.419,277.44,368.487,273.797,368.487
		 M179.623,436.508c0.324,0,0.647-0.322,0.755-0.797l0.064-0.064l4.204-17.377l16.903-4.033h0.129
		c0.431-0.15,0.754-0.43,0.754-0.818c0-0.367-0.323-0.668-0.754-0.754l-17.033-4.227l-4.204-17.528
		c-0.064-0.409-0.41-0.755-0.776-0.755c-0.367,0-0.647,0.281-0.733,0.733l-4.333,17.55l-17.032,4.117
		c-0.496,0.088-0.884,0.367-0.884,0.82c0,0.389,0.388,0.711,0.884,0.797l17.011,4.076l4.204,17.527
		C178.933,436.186,179.235,436.508,179.623,436.508 M164.79,450.975l-1.919-7.998c0-0.172-0.129-0.346-0.367-0.346
		c-0.129,0-0.28,0.174-0.345,0.346l-1.919,7.998l-7.762,1.877c-0.215,0-0.388,0.172-0.388,0.365c0,0.174,0.172,0.367,0.366,0.389
		l7.783,1.875l1.919,7.957c0,0.193,0.172,0.322,0.323,0.322c0.216,0,0.324-0.129,0.388-0.344v-0.021l1.919-7.891
		c0,0,7.718-1.855,7.761-1.855h0.022c0.172-0.064,0.323-0.215,0.323-0.344c0-0.217-0.151-0.389-0.323-0.389L164.79,450.975
		L164.79,450.975z M191.222,505.911l-1.875-7.998c0-0.217-0.216-0.367-0.367-0.367c-0.172,0-0.237,0.15-0.366,0.367l-1.94,7.998
		l-7.74,1.854c-0.215,0-0.453,0.174-0.453,0.389c0,0.172,0.237,0.303,0.453,0.367l7.74,1.854l1.94,7.955
		c0.086,0.217,0.194,0.367,0.323,0.367c0.194,0,0.367-0.15,0.41-0.389v-0.043l1.875-7.869l7.827-1.854
		c0.172-0.064,0.323-0.217,0.323-0.346c0-0.193-0.151-0.324-0.323-0.432L191.222,505.911L191.222,505.911z M266.639,416.653
		l-1.876-8.021c-0.086-0.193-0.237-0.344-0.41-0.344c-0.129,0-0.28,0.15-0.345,0.344l-1.919,8.021l-7.783,1.854
		c-0.259,0.043-0.453,0.193-0.453,0.389c0,0.193,0.194,0.322,0.453,0.389l7.697,1.854l1.918,7.955
		c0.086,0.217,0.216,0.324,0.388,0.324c0.151,0,0.345-0.131,0.41-0.346l1.919-7.934l7.718-1.854h0.021
		c0.216-0.066,0.367-0.195,0.367-0.324c0-0.215-0.151-0.346-0.367-0.41L266.639,416.653L266.639,416.653z"/>
</g>
</svg>
