<?xml version="1.0" encoding="utf-8"?>
<svg xmlns="http://www.w3.org/2000/svg" width="160" height="160" viewBox="0 0 160 160" fill="none">
  <path d="M0 80C0 35.8172 35.8172 0 80 0C124.183 0 160 35.8172 160 80C160 124.183 124.183 160 80 160C35.8172 160 0 124.183 0 80Z" fill="#253A32"/>
  <path d="M160 143.304V16.696C160 7.476 152.526 0 143.304 0H16.696C7.476 0 0 7.474 0 16.696V143.304C0 152.522 7.472 159.996 16.69 160H143.31C152.528 159.996 160 152.524 160 143.304ZM101.168 64.476L134.28 38.392V50.502L101.168 76.588V64.476ZM45.56 38.392H54.316L54.352 76.468H45.56V38.392ZM42.688 97.418C47.86 99.088 54.54 101.296 54.54 108.892C54.54 117.672 47.482 121.606 39.94 121.606C34.5 121.606 29.008 119.612 25.666 116.112L31.7 109.972C33.532 112.288 36.924 114.008 39.94 114.008C42.742 114.008 45.22 112.932 45.22 109.862C45.22 106.954 42.308 106.036 37.3 104.42C32.452 102.86 27.55 100.384 27.55 93.488C27.55 85.03 35.2 81.526 42.308 81.526C46.604 81.526 51.428 83.13 54.766 86.18L48.746 92.196C47.152 90.328 44.43 89.122 42.148 89.122C39.866 89.122 36.816 89.93 36.816 92.948C36.816 94.956 39.076 96.288 42.688 97.418ZM60.416 120.664V82.468H69.172L69.208 120.664H60.416ZM69.208 51.59V76.466H60.416V38.39H70.922L86.22 63.278H86.382L86.352 38.39H95.11V76.498H84.638L69.306 51.59H69.208ZM103.034 90.332H93.69V120.662H84.478V90.332H75.104V82.466H103.034V90.332ZM134.332 120.662H108.598V82.466H134.236V90.28H117.484V97.444H132.89V104.826H117.484V112.744H134.33V120.666L134.332 120.662Z" fill="#8ED96C"/>
</svg>